<?xml version="1.0" standalone="no"?>
<!DOCTYPE svg PUBLIC "-//W3C//DTD SVG 20010904//EN"
 "http://www.w3.org/TR/2001/REC-SVG-20010904/DTD/svg10.dtd">
<svg version="1.0" xmlns="http://www.w3.org/2000/svg"
 width="500.000000pt" height="500.000000pt" viewBox="0 0 500.000000 500.000000"
 preserveAspectRatio="xMidYMid meet">

<g transform="translate(0.000000,500.000000) scale(0.100000,-0.100000)"
fill="#000000" stroke="none">
<path d="M1880 4899 c0 -5 5 -7 10 -4 6 3 10 8 10 11 0 2 -4 4 -10 4 -5 0 -10
-5 -10 -11z"/>
<path d="M1790 4880 c0 -5 5 -10 11 -10 5 0 7 5 4 10 -3 6 -8 10 -11 10 -2 0
-4 -4 -4 -10z"/>
<path d="M568 4073 c-30 -36 -30 -47 0 -19 18 17 32 31 32 33 0 9 -19 1 -32
-14z"/>
<path d="M390 3818 c-39 -60 -50 -85 -30 -73 6 3 10 10 10 15 0 5 16 34 35 65
20 30 33 55 30 55 -3 0 -23 -28 -45 -62z"/>
<path d="M305 3660 c-3 -5 -1 -10 4 -10 6 0 11 5 11 10 0 6 -2 10 -4 10 -3 0
-8 -4 -11 -10z"/>
<path d="M235 3520 c-3 -5 -1 -10 4 -10 6 0 11 5 11 10 0 6 -2 10 -4 10 -3 0
-8 -4 -11 -10z"/>
<path d="M210 3469 c0 -5 5 -7 10 -4 6 3 10 8 10 11 0 2 -4 4 -10 4 -5 0 -10
-5 -10 -11z"/>
<path d="M173 3393 c-59 -136 -73 -173 -73 -199 0 -16 -9 -56 -20 -88 -11 -33
-20 -81 -20 -107 0 -26 -5 -60 -11 -76 -25 -65 -32 -152 -33 -408 0 -258 3
-304 34 -425 22 -89 30 -131 30 -165 0 -39 67 -246 110 -340 90 -196 162 -328
243 -440 31 -44 72 -102 91 -130 43 -63 364 -382 431 -429 183 -127 307 -207
350 -226 220 -98 281 -122 400 -160 147 -47 229 -70 252 -70 12 0 34 -5 50
-11 15 -7 64 -16 108 -22 103 -12 558 -12 655 1 99 13 250 46 277 60 12 7 30
12 41 12 11 0 59 14 108 31 49 16 99 33 112 36 23 5 29 18 13 27 -5 3 -14 -1
-21 -9 -7 -8 -25 -15 -41 -15 -16 0 -29 -4 -29 -10 0 -5 -13 -10 -29 -10 -17
0 -33 -5 -36 -10 -3 -6 -19 -10 -34 -10 -15 0 -41 -4 -57 -9 -30 -9 -132 -30
-240 -50 -94 -17 -434 -24 -574 -12 -115 10 -217 26 -330 52 -25 6 -62 13 -83
16 -20 3 -40 9 -43 14 -3 5 -18 9 -33 9 -15 0 -31 4 -36 8 -6 5 -46 21 -90 36
-44 15 -89 31 -100 36 -88 39 -183 82 -197 90 -10 5 -50 27 -90 48 -40 21 -93
52 -117 68 -24 16 -54 36 -67 45 -13 9 -38 28 -54 42 -16 15 -35 27 -41 27
-15 0 -363 344 -413 409 -62 81 -115 154 -122 171 -4 8 -18 29 -31 46 -13 17
-23 36 -23 42 0 7 -4 12 -10 12 -5 0 -10 9 -10 20 0 11 -4 20 -8 20 -4 0 -15
15 -23 33 -9 17 -33 66 -54 107 -21 41 -41 84 -46 95 -4 11 -19 46 -33 78 -14
32 -26 66 -26 77 0 10 -4 22 -10 25 -5 3 -10 17 -10 30 0 13 -4 27 -10 30 -5
3 -10 19 -10 34 0 15 -5 32 -11 38 -6 6 -13 38 -16 72 -3 34 -10 64 -14 67 -5
3 -9 29 -9 58 0 28 -5 57 -12 64 -6 6 -13 45 -14 87 -2 41 -8 84 -14 94 -5 11
-10 58 -10 105 0 114 10 126 102 126 72 0 88 -11 88 -62 1 -18 3 -20 9 -8 5 8
11 65 14 125 3 61 11 149 18 196 17 120 18 119 -89 119 l-90 0 -6 32 c-7 37 3
126 15 134 5 3 9 20 9 39 0 19 5 37 10 40 5 3 10 15 10 25 0 22 26 106 40 132
6 10 10 28 10 41 0 13 5 28 11 34 6 6 9 17 7 23 -2 7 -13 -10 -25 -37z"/>
<path d="M3811 2709 c-42 -8 -111 -46 -111 -61 0 -5 58 -8 130 -8 l130 0 69
-102 c104 -152 200 -283 211 -286 16 -6 23 43 20 133 -1 51 -3 56 -11 34 l-10
-26 -47 25 c-50 27 -144 132 -216 242 -37 58 -40 60 -80 59 -23 -1 -61 -5 -85
-10z"/>
<path d="M4726 2702 c-6 -10 -21 -156 -32 -317 -9 -132 -7 -129 -61 -108 -30
11 -64 11 -151 2 -54 -6 -89 -6 -101 1 -18 9 -31 -3 -31 -30 0 -4 73 -8 163
-9 89 -1 166 -6 172 -12 5 -5 55 -9 112 -9 l103 0 0 75 c0 58 4 77 15 81 12 5
15 32 15 154 0 139 -1 148 -20 153 -11 3 -20 1 -20 -5 0 -5 -5 -6 -11 -2 -7 4
-37 7 -68 7 -38 0 -60 5 -67 15 -7 10 -13 11 -18 4z"/>
<path d="M243 2435 c0 -22 2 -30 4 -17 2 12 2 30 0 40 -3 9 -5 -1 -4 -23z"/>
<path d="M3612 2364 c-2 -55 -6 -75 -22 -92 -11 -12 -20 -26 -20 -32 0 -5 -4
-10 -10 -10 -5 0 -10 22 -10 50 0 47 -2 51 -32 63 -18 8 -48 26 -65 41 -29 25
-47 25 -24 1 19 -20 72 -126 86 -172 24 -78 20 -294 -6 -374 -38 -115 -78
-178 -172 -269 -74 -72 -242 -141 -382 -159 l-50 -6 -5 -221 c-5 -204 -7 -224
-25 -244 -30 -34 -77 -50 -147 -50 -76 0 -123 21 -155 69 -22 33 -23 43 -23
236 0 231 7 215 -95 206 l-60 -6 -5 -221 c-5 -242 -6 -245 -67 -271 -50 -20
-161 -17 -200 7 -64 38 -73 76 -73 288 0 133 -4 192 -12 200 -9 9 -73 12 -229
12 -208 0 -217 1 -250 23 -18 12 -44 38 -57 57 -21 31 -23 44 -20 112 3 86 20
118 79 153 33 19 57 20 699 25 l665 5 55 24 c98 42 140 106 140 212 0 51 -17
109 -32 109 -5 0 -7 4 -4 9 3 5 -12 25 -34 45 -35 31 -47 36 -90 36 -38 0 -50
-4 -50 -15 0 -10 -11 -15 -35 -15 -24 0 -35 5 -35 15 0 8 -7 15 -15 15 -8 0
-15 -7 -15 -15 0 -12 -7 -14 -27 -9 -35 8 -37 10 -28 23 3 6 42 12 88 12 78 2
79 2 32 9 -77 12 -1097 12 -1090 0 3 -5 19 -10 35 -10 15 0 30 -4 32 -10 2 -6
17 -5 42 2 31 10 40 10 44 0 4 -14 32 -16 32 -2 0 6 27 10 60 10 45 0 60 -4
60 -14 0 -21 -36 -26 -180 -27 -80 0 -130 -4 -130 -10 0 -6 -9 -8 -20 -4 -10
3 -29 1 -41 -5 -17 -9 -23 -9 -29 0 -5 8 -18 10 -36 6 -16 -4 -35 -6 -41 -6
-7 1 -34 1 -60 1 -132 -1 -188 1 -210 10 -17 6 -35 4 -60 -6 -19 -8 -44 -15
-54 -15 -11 0 -19 -4 -19 -10 0 -5 -16 -10 -35 -10 -24 0 -35 5 -35 15 0 18
-9 19 -30 4 -11 -8 -12 -12 -2 -16 23 -9 12 -23 -18 -23 -28 0 -30 -2 -20 -20
10 -18 21 -20 118 -20 71 0 112 -4 120 -12 16 -16 16 -100 0 -116 -8 -8 -57
-12 -155 -12 -158 0 -148 -4 -211 80 -15 19 -29 37 -32 40 -9 9 -51 85 -57
103 -3 9 -9 17 -14 17 -5 0 -9 7 -9 15 0 9 -7 18 -15 21 -8 4 -15 12 -15 20 0
18 -16 18 -23 0 -3 -8 3 -22 14 -32 15 -13 16 -19 7 -26 -28 -17 -48 -9 -48
20 0 21 -2 24 -10 12 -11 -17 -4 -80 17 -160 9 -30 18 -70 20 -88 3 -18 9 -35
14 -38 5 -3 9 -14 9 -25 0 -10 4 -27 10 -37 5 -9 32 -64 59 -122 169 -364 493
-677 872 -842 262 -114 463 -158 725 -158 254 0 462 41 693 136 403 167 722
467 928 876 33 65 57 120 55 123 -3 3 -119 5 -259 5 l-253 0 -1 138 c-2 176
-15 443 -17 346z m-1428 -146 c5 -10 7 -10 12 0 8 16 22 15 40 -3 13 -13 12
-15 -8 -19 -26 -5 -98 -4 -98 1 0 2 6 10 13 18 15 18 34 19 41 3z m536 -8 c0
-5 -16 -10 -35 -10 -19 0 -35 5 -35 10 0 6 16 10 35 10 19 0 35 -4 35 -10z
m-420 -10 c0 -5 -7 -10 -15 -10 -8 0 -15 5 -15 10 0 6 7 10 15 10 8 0 15 -4
15 -10z m50 0 c0 -5 -7 -10 -15 -10 -8 0 -15 5 -15 10 0 6 7 10 15 10 8 0 15
-4 15 -10z m90 0 c0 -5 -11 -10 -25 -10 -14 0 -25 5 -25 10 0 6 11 10 25 10
14 0 25 -4 25 -10z"/>
<path d="M895 2361 c-4 -7 6 -33 22 -59 l29 -47 137 -3 c154 -3 204 8 118 27
-29 6 -61 11 -72 11 -16 0 -18 5 -13 25 5 21 1 26 -22 36 -45 17 -190 24 -199
10z"/>
<path d="M241 2344 c0 -11 3 -14 6 -6 3 7 2 16 -1 19 -3 4 -6 -2 -5 -13z"/>
<path d="M3942 2323 c74 -82 74 -82 120 -76 50 7 63 13 25 13 -15 0 -27 5 -27
10 0 6 -7 10 -15 10 -8 0 -24 8 -34 18 -32 29 -84 62 -96 62 -3 0 9 -16 27
-37z"/>
<path d="M264 2245 c-3 -13 -1 -37 4 -52 9 -25 10 -23 11 25 1 56 -5 67 -15
27z"/>
<path d="M1728 2263 c-22 -5 -24 -23 -3 -23 8 0 15 4 15 10 0 5 7 7 15 4 8 -4
15 -1 15 5 0 11 -11 12 -42 4z"/>
<path d="M296 2183 c-11 -34 -9 -124 3 -136 6 -6 11 -22 11 -36 0 -25 1 -30
44 -166 178 -573 629 -1080 1182 -1331 292 -132 629 -204 949 -204 402 0 748
92 1093 291 337 195 541 386 777 729 82 119 275 527 258 544 -4 3 -91 6 -194
6 l-187 0 -21 -53 c-27 -67 -144 -272 -200 -351 -99 -142 -254 -301 -411 -423
-475 -368 -1137 -482 -1695 -291 -134 46 -286 111 -360 156 -409 243 -720 629
-864 1072 -23 69 -41 133 -41 143 0 21 -16 22 -24 1 -4 -10 -14 -14 -26 -11
-11 3 -36 1 -57 -3 -21 -5 -60 -9 -88 -9 -27 0 -65 -1 -82 -1 -22 0 -33 5 -33
14 0 7 -6 28 -14 47 -12 28 -14 30 -20 12z m374 -355 c26 -28 25 -61 -2 -92
-70 -79 -179 2 -122 89 22 34 93 36 124 3z m3699 7 c71 -36 42 -135 -40 -135
-77 0 -94 100 -24 138 26 15 31 15 64 -3z m-3471 -407 c59 -49 11 -136 -72
-130 -58 4 -78 93 -29 132 29 23 72 22 101 -2z m3262 -10 c49 -53 4 -124 -77
-119 -29 1 -63 38 -63 68 0 62 97 97 140 51z m-2933 -350 c61 -57 -11 -153
-92 -122 -15 6 -45 54 -45 73 0 5 12 23 26 40 32 38 76 42 111 9z m2593 -8
c43 -43 6 -130 -55 -130 -35 0 -75 42 -75 79 0 59 87 94 130 51z m-2223 -252
c47 -44 16 -118 -50 -118 -47 0 -77 24 -77 62 0 68 78 102 127 56z m1858 -3
c45 -44 21 -105 -45 -120 -48 -10 -80 16 -80 65 0 71 76 105 125 55z m-1410
-189 c19 -54 -38 -108 -98 -92 -52 13 -67 89 -26 123 38 31 108 13 124 -31z
m976 25 c35 -35 36 -52 6 -86 -43 -51 -137 -28 -137 34 0 36 47 78 88 80 8 1
27 -12 43 -28z m-487 -62 c53 -41 19 -129 -50 -129 -74 0 -105 79 -50 127 34
28 65 29 100 2z"/>
<path d="M420 2170 c0 -5 5 -10 11 -10 5 0 7 5 4 10 -3 6 -8 10 -11 10 -2 0
-4 -4 -4 -10z"/>
<path d="M535 2171 c-6 -5 -28 -11 -50 -13 -49 -4 -49 -22 1 -26 26 -2 41 2
55 17 11 11 19 23 19 26 0 8 -15 6 -25 -4z"/>
<path d="M3710 439 c0 -5 5 -7 10 -4 6 3 10 8 10 11 0 2 -4 4 -10 4 -5 0 -10
-5 -10 -11z"/>
<path d="M3593 382 c-78 -39 -97 -60 -35 -37 53 19 98 43 112 60 18 22 3 17
-77 -23z"/>
<path d="M3465 320 c-3 -5 1 -10 9 -10 8 0 18 5 21 10 3 6 -1 10 -9 10 -8 0
-18 -4 -21 -10z"/>
</g>
</svg>
